<svg width="34" height="36" viewBox="0 0 34 36" fill="none" xmlns="http://www.w3.org/2000/svg">
<path d="M0.0625 35.3387L3.11247 20.0836H30.5145L33.5645 35.3387H0.0625ZM1.01561 2.91576V1.0029H6.16243V2.91576H1.01561ZM2.44528 33.4258H15.8842V28.7393H3.3984L2.44528 33.4258ZM5.39994 12.9104L4.06558 11.6193L7.68741 7.937L9.06943 9.276L5.39994 12.9104ZM3.77965 26.8265H15.8842V21.9965H4.73276L3.77965 26.8265ZM16.8373 8.70215C14.6769 8.70215 12.8501 7.95294 11.3569 6.45454C9.86369 4.95614 9.11708 3.12298 9.11708 0.955078H11.0233C11.0233 2.58101 11.5876 3.95954 12.716 5.09067C13.8433 6.22308 15.217 6.78929 16.8373 6.78929C18.4576 6.78929 19.832 6.22308 20.9605 5.09067C22.0877 3.95954 22.6513 2.58101 22.6513 0.955078H24.5575C24.5575 3.12298 23.8109 4.95614 22.3177 6.45454C20.8245 7.95294 18.9977 8.70215 16.8373 8.70215ZM15.8842 16.6883V11.4758H17.7904V16.6883H15.8842ZM17.7904 33.4258H31.1817L30.2286 28.7393H17.7904V33.4258ZM17.7904 26.8265H29.8473L28.8942 21.9965H17.7904V26.8265ZM28.3223 12.9583L24.6528 9.276L25.9872 7.937L29.7044 11.5714L28.3223 12.9583ZM27.5122 2.91576V1.0029H32.659V2.91576H27.5122Z" fill="#008C49"/>
</svg>
