<?xml version="1.0" encoding="utf-8"?>
<!-- Generator: Adobe Illustrator 26.0.0, SVG Export Plug-In . SVG Version: 6.00 Build 0)  -->
<svg version="1.1" id="Layer_1" xmlns="http://www.w3.org/2000/svg" xmlns:xlink="http://www.w3.org/1999/xlink" x="0px" y="0px"
	 viewBox="0 0 1500 1500" style="enable-background:new 0 0 1500 1500;" xml:space="preserve">
<style type="text/css">
	.st0{fill:#061E37;}
	.st1{fill:#F78F27;}
	.st2{fill:#32A4DD;}
</style>
<g>
	<path class="st0" d="M805.9,177v160.4c203.5,27.2,360.6,201.6,360.6,412.6c0,211.1-157.1,385.5-360.6,412.6V1323
		c291.8-28,519.9-273.7,519.9-573C1325.8,450.9,1097.7,204.9,805.9,177z"/>
	<path class="st1" d="M174.2,750c0,299.3,228.1,545.1,519.9,573v-160.4c-203.5-27-360.6-201.4-360.6-412.6
		c0-210.9,157.1-385.4,360.6-412.6V177C402.3,204.9,174.2,450.9,174.2,750z"/>
	<polygon class="st2" points="940.1,399.3 614.6,624.9 719.9,624.9 606.4,882 708,881.6 559.9,1100.7 901.5,881.7 814.6,881.5 
		835.3,844 703.5,845 735,771.2 830.7,768.5 849.8,735.6 751.4,735.6 788.3,659.1 915.5,659.1 936,619.4 803.3,619.4 	"/>
</g>
</svg>
