<?xml version="1.0" encoding="utf-8"?>
<!-- Generator: Adobe Illustrator 26.0.0, SVG Export Plug-In . SVG Version: 6.00 Build 0)  -->
<svg version="1.1" id="Layer_1" xmlns="http://www.w3.org/2000/svg" xmlns:xlink="http://www.w3.org/1999/xlink" x="0px" y="0px"
	 viewBox="0 0 4500 1500" style="enable-background:new 0 0 4500 1500;" xml:space="preserve">
<style type="text/css">
	.st0{fill:#061E37;}
	.st1{fill:#F78F27;}
	.st2{fill:#32A4DD;}
</style>
<g>
	<g>
		<path class="st0" d="M586.3,424.7v91.1C701.8,531.2,791,630.3,791,750c0,119.8-89.2,218.9-204.7,234.2v91.1
			c165.7-15.9,295.1-155.4,295.1-325.3C881.4,580.2,751.9,440.6,586.3,424.7z"/>
		<path class="st1" d="M227.7,750c0,169.9,129.5,309.4,295.1,325.3v-91.1C407.3,968.9,318.1,869.8,318.1,750
			c0-119.7,89.2-218.8,204.7-234.2v-91.1C357.2,440.6,227.7,580.2,227.7,750z"/>
		<polygon class="st2" points="662.5,550.9 477.7,679 537.5,679 473.1,824.9 530.7,824.7 446.7,949.1 640.6,824.8 591.2,824.6 
			603,803.4 528.2,803.9 546,762 600.4,760.5 611.2,741.8 555.3,741.8 576.3,698.4 648.5,698.4 660.1,675.9 584.8,675.9 		"/>
	</g>
	<g>
		<g>
			<path class="st0" d="M1159,603.9v116.5h137v53.1h-137v121.6h154.2v53.1H1094V550.8h219.2v53.1H1159z"/>
			<path class="st0" d="M1458.2,525.7v422.5h-65.1V525.7H1458.2z"/>
			<path class="st0" d="M1829.9,815.2h-240.4c1.9,25.1,11.2,45.3,28,60.5c16.7,15.2,37.3,22.8,61.7,22.8c35,0,59.8-14.7,74.2-44
				h70.2c-9.5,28.9-26.7,52.6-51.7,71.1s-55.9,27.7-92.8,27.7c-30.1,0-57-6.8-80.8-20.3c-23.8-13.5-42.4-32.5-56-57.1
				c-13.5-24.6-20.3-53-20.3-85.3c0-32.3,6.6-60.8,19.7-85.4c13.1-24.6,31.6-43.5,55.4-56.8c23.8-13.3,51.1-20,81.9-20
				c29.7,0,56.1,6.5,79.4,19.4c23.2,12.9,41.3,31.1,54.2,54.5c12.9,23.4,19.4,50.3,19.4,80.8C1832.2,795,1831.4,805.7,1829.9,815.2z
				 M1764.2,762.7c-0.4-24-8.9-43.2-25.7-57.7c-16.8-14.5-37.5-21.7-62.2-21.7c-22.5,0-41.7,7.1-57.7,21.4
				c-16,14.3-25.5,33.6-28.5,57.9H1764.2z"/>
			<path class="st0" d="M1894.1,705.3c13.1-24.6,31.3-43.5,54.5-56.8c23.2-13.3,49.9-20,79.9-20c38.1,0,69.6,9,94.5,27.1
				c24.9,18.1,41.8,43.9,50.5,77.4h-70.2c-5.7-15.6-14.8-27.8-27.4-36.5c-12.6-8.8-28.4-13.1-47.4-13.1c-26.6,0-47.9,9.4-63.7,28.3
				c-15.8,18.8-23.7,45.2-23.7,79.1c0,33.9,7.9,60.3,23.7,79.4c15.8,19,37,28.5,63.7,28.5c37.7,0,62.6-16.6,74.8-49.7h70.2
				c-9.1,32-26.3,57.4-51.4,76.2c-25.1,18.8-56.3,28.3-93.6,28.3c-30.1,0-56.7-6.8-79.9-20.3s-41.4-32.5-54.5-57.1
				s-19.7-53-19.7-85.3C1874.4,758.3,1881,729.8,1894.1,705.3z"/>
			<path class="st0" d="M2314.6,686.7v174.1c0,11.8,2.8,20.3,8.3,25.4c5.5,5.1,14.9,7.7,28.3,7.7h40v54.2h-51.4
				c-29.3,0-51.8-6.8-67.4-20.6c-15.6-13.7-23.4-36-23.4-66.8V686.7h-37.1v-53.1h37.1v-78.2h65.7v78.2h76.5v53.1H2314.6z"/>
			<path class="st0" d="M2554.1,641.9c15.8-8.9,34.5-13.4,56.2-13.4v67.4h-16.6c-25.5,0-44.8,6.5-57.9,19.4
				c-13.1,12.9-19.7,35.4-19.7,67.4v165.6H2451V633.6h65.1v45.7C2525.6,663.3,2538.3,650.8,2554.1,641.9z"/>
			<path class="st0" d="M2668.3,705.6c13.1-24.4,31-43.3,53.7-56.8c22.6-13.5,47.7-20.3,75.1-20.3c24.7,0,46.3,4.9,64.8,14.6
				c18.5,9.7,33.2,21.8,44.3,36.3v-45.7h65.7v314.6h-65.7v-46.8c-11,14.8-26.1,27.2-45.1,37.1c-19,9.9-40.7,14.8-65.1,14.8
				c-27,0-51.8-7-74.2-20.9c-22.5-13.9-40.3-33.3-53.4-58.2c-13.1-24.9-19.7-53.2-19.7-84.8S2655.1,729.9,2668.3,705.6z
				 M2892.7,734.1c-8.9-16-20.7-28.2-35.1-36.5c-14.5-8.4-30.1-12.6-46.8-12.6c-16.8,0-32.4,4.1-46.8,12.3
				c-14.5,8.2-26.2,20.2-35.1,36c-8.9,15.8-13.4,34.5-13.4,56.2c0,21.7,4.5,40.7,13.4,57.1c8.9,16.4,20.7,28.8,35.4,37.4
				c14.6,8.6,30.2,12.8,46.5,12.8c16.7,0,32.3-4.2,46.8-12.5c14.5-8.4,26.2-20.6,35.1-36.8c8.9-16.2,13.4-35.1,13.4-56.8
				C2906.1,768.9,2901.6,750.1,2892.7,734.1z"/>
			<path class="st0" d="M3479.9,633.6l-97.6,314.6h-68.5l-63.4-232.4L3187,948.2h-68.5l-98.2-314.6h66.2l65.7,252.9l66.8-252.9h67.9
				l63.9,251.8l65.1-251.8H3479.9z"/>
			<path class="st0" d="M3531.8,580c-8-8-12-17.9-12-29.7c0-11.8,4-21.7,12-29.7c8-8,17.9-12,29.7-12c11.4,0,21.1,4,29.1,12
				c8,8,12,17.9,12,29.7c0,11.8-4,21.7-12,29.7c-8,8-17.7,12-29.1,12C3549.7,591.9,3539.8,587.9,3531.8,580z M3593.5,633.6v314.6
				h-65.1V633.6H3593.5z"/>
			<path class="st0" d="M3726.8,939.9c-19.6-8.9-35.1-21.1-46.5-36.5c-11.4-15.4-17.5-32.6-18.3-51.7h67.4
				c1.1,13.3,7.5,24.5,19.1,33.4c11.6,8.9,26.2,13.4,43.7,13.4c18.3,0,32.4-3.5,42.5-10.6c10.1-7,15.1-16.1,15.1-27.1
				c0-11.8-5.6-20.6-16.8-26.3c-11.2-5.7-29-12-53.4-18.8c-23.6-6.5-42.8-12.7-57.7-18.8c-14.8-6.1-27.7-15.4-38.5-28
				c-10.9-12.6-16.3-29.1-16.3-49.7c0-16.7,4.9-32.1,14.8-46c9.9-13.9,24.1-24.8,42.5-32.8c18.5-8,39.7-12,63.7-12
				c35.8,0,64.6,9,86.5,27.1c21.9,18.1,33.6,42.7,35.1,73.9h-65.1c-1.1-14.1-6.9-25.3-17.1-33.7c-10.3-8.4-24.2-12.6-41.7-12.6
				c-17.1,0-30.3,3.2-39.4,9.7c-9.1,6.5-13.7,15-13.7,25.7c0,8.4,3,15.4,9.1,21.1c6.1,5.7,13.5,10.2,22.3,13.4
				c8.7,3.2,21.7,7.3,38.8,12.3c22.8,6.1,41.6,12.3,56.2,18.6c14.7,6.3,27.3,15.5,38,27.7c10.6,12.2,16.2,28.4,16.6,48.5
				c0,17.9-5,33.9-14.8,48c-9.9,14.1-23.9,25.1-42,33.1c-18.1,8-39.3,12-63.7,12C3768.6,953.3,3746.4,948.9,3726.8,939.9z"/>
			<path class="st0" d="M4270,815.2h-240.4c1.9,25.1,11.2,45.3,28,60.5c16.7,15.2,37.3,22.8,61.7,22.8c35,0,59.8-14.7,74.2-44h70.2
				c-9.5,28.9-26.7,52.6-51.7,71.1c-24.9,18.5-55.9,27.7-92.8,27.7c-30.1,0-57-6.8-80.8-20.3c-23.8-13.5-42.4-32.5-56-57.1
				c-13.5-24.6-20.3-53-20.3-85.3c0-32.3,6.6-60.8,19.7-85.4c13.1-24.6,31.6-43.5,55.4-56.8c23.8-13.3,51.1-20,81.9-20
				c29.7,0,56.1,6.5,79.4,19.4c23.2,12.9,41.3,31.1,54.2,54.5c12.9,23.4,19.4,50.3,19.4,80.8C4272.3,795,4271.5,805.7,4270,815.2z
				 M4204.4,762.7c-0.4-24-8.9-43.2-25.7-57.7c-16.8-14.5-37.5-21.7-62.2-21.7c-22.5,0-41.7,7.1-57.7,21.4
				c-16,14.3-25.5,33.6-28.5,57.9H4204.4z"/>
		</g>
	</g>
</g>
</svg>
