<svg width="40" height="39" viewBox="0 0 40 39" fill="none" xmlns="http://www.w3.org/2000/svg">
<path d="M19.1721 28.7048C21.4341 28.7048 23.3504 27.9195 24.921 26.3489C26.4902 24.7797 27.2748 22.8641 27.2748 20.6021V12.4994H19.1721C16.9101 12.4994 14.9945 13.284 13.4252 14.8532C11.8547 16.4238 11.0694 18.3401 11.0694 20.6021C11.0694 21.5474 11.2044 22.4502 11.4745 23.3104C11.7446 24.172 12.1666 24.9404 12.7406 25.6156L11.3732 26.983C11.1369 27.1855 11.0187 27.4219 11.0187 27.6919C11.0187 27.962 11.1369 28.1984 11.3732 28.4009C11.5758 28.6373 11.8121 28.7554 12.0822 28.7554C12.3523 28.7554 12.5886 28.6373 12.7912 28.4009L14.1585 27.0336C14.8675 27.6075 15.6528 28.0296 16.5144 28.2996C17.3746 28.5697 18.2605 28.7048 19.1721 28.7048ZM19.1721 26.6791C18.5306 26.6791 17.906 26.5947 17.2983 26.4259C16.6906 26.2571 16.1336 25.9701 15.6272 25.565L20.8939 20.2982C21.1303 20.0956 21.2484 19.8593 21.2484 19.5892C21.2484 19.3191 21.1303 19.0828 20.8939 18.8802C20.6914 18.6439 20.455 18.5257 20.1849 18.5257C19.9148 18.5257 19.6785 18.6439 19.4759 18.8802L14.2092 24.147C13.804 23.6406 13.5171 23.0835 13.3483 22.4758C13.1795 21.8681 13.0951 21.2435 13.0951 20.6021C13.0951 18.914 13.6859 17.4791 14.8675 16.2975C16.0492 15.1159 17.484 14.525 19.1721 14.525H25.2491V20.6021C25.2491 22.2901 24.6583 23.725 23.4767 24.9066C22.295 26.0883 20.8602 26.6791 19.1721 26.6791ZM20.1849 38.9851L14.1079 34.2248L6.46096 33.3132L5.54941 25.6663L0.789062 19.5892L5.54941 13.5122L6.46096 5.86526L14.1079 4.9537L20.1849 0.193359L26.262 4.9537L33.9089 5.86526L34.8205 13.5122L39.5808 19.5892L34.8205 25.6663L33.9089 33.3132L26.262 34.2248L20.1849 38.9851ZM20.1849 36.4024L25.4517 32.3004L32.1364 31.4901L32.8961 24.856L36.9981 19.5892L32.8961 14.3225L32.0858 7.68837L25.4517 6.8781L20.1849 2.7761L14.9182 6.8781L8.23343 7.68837L7.4738 14.3225L3.3718 19.5892L7.4738 24.856L8.28407 31.5407L14.9182 32.3004L20.1849 36.4024Z" fill="#008C49"/>
</svg>
