<svg width="31" height="31" viewBox="0 0 31 31" fill="none" xmlns="http://www.w3.org/2000/svg">
<mask id="mask0_386_1492" style="mask-type:alpha" maskUnits="userSpaceOnUse" x="0" y="0" width="31" height="31">
<rect width="30.8387" height="30.8387" fill="#D9D9D9"/>
</mask>
<g mask="url(#mask0_386_1492)">
<path d="M25.6353 26.9845C22.8727 26.9845 20.1799 26.3686 17.5569 25.1367C14.933 23.9058 12.6094 22.2782 10.586 20.254C8.5618 18.2306 6.9342 15.907 5.70322 13.2831C4.47139 10.6601 3.85547 7.9673 3.85547 5.20466C3.85547 4.81918 3.98396 4.49794 4.24095 4.24095C4.49794 3.98396 4.81918 3.85547 5.20466 3.85547H10.4087C10.7085 3.85547 10.9762 3.95184 11.2118 4.14458C11.4474 4.33732 11.5866 4.5836 11.6294 4.88343L12.4646 9.38074C12.5074 9.68056 12.5023 9.95339 12.4492 10.1992C12.3952 10.446 12.2719 10.6657 12.0791 10.8584L8.99525 14.0065C9.89472 15.5485 11.019 16.994 12.3682 18.3432C13.7174 19.6924 15.2058 20.8596 16.8334 21.8447L19.853 18.8251C20.0458 18.6323 20.2976 18.4876 20.6086 18.3908C20.9187 18.2948 21.2237 18.2683 21.5235 18.3111L25.9565 19.2106C26.2564 19.2748 26.5026 19.4192 26.6954 19.6436C26.8881 19.8689 26.9845 20.1315 26.9845 20.4313V25.6353C26.9845 26.0208 26.856 26.342 26.599 26.599C26.342 26.856 26.0208 26.9845 25.6353 26.9845Z" fill="#001D38"/>
</g>
</svg>
